<svg width="1119" height="319" viewBox="0 0 1119 319" fill="none" xmlns="http://www.w3.org/2000/svg">
<path fill-rule="evenodd" clip-rule="evenodd" d="M146.3 0.248109C125.942 1.18963 106.99 6.00981 88.961 14.8312C79.55 19.4361 73.8653 22.7592 67.2741 27.5092C60.7463 32.2137 53.8541 37.934 54.0206 38.509C54.0997 38.7823 53.9578 38.8787 53.7048 38.7221C53.4519 38.566 51.2599 40.3747 48.8333 42.7416C28.1262 62.9387 14.1113 86.5631 6.22307 114.568C1.02691 133.015 -1.24573 157.917 0.677108 175.339C2.80626 194.63 8.97483 215.753 17.3401 232.399C22.3095 242.286 30.025 254.485 30.8418 253.746C31.0749 253.535 31.1183 253.621 30.9377 253.938C30.0941 255.419 45.6496 273.219 54.4243 280.814C69.1137 293.528 83.6078 302.138 103.471 309.948C120.31 316.569 146.141 320.258 164.104 318.608C190.041 316.226 211.483 309.26 232.441 296.405C240.566 291.422 255.111 280.225 254.813 279.184C254.734 278.907 254.878 278.81 255.134 278.968C255.696 279.316 266.105 268.687 271.234 262.526C286.026 244.76 296.185 224.502 302.614 199.95C305.71 188.126 306.912 180.751 307.633 169.167C308.977 147.545 306.066 126.294 298.888 105.32C295.134 94.3523 289.081 81.0664 288.112 81.6659C287.745 81.8921 287.67 81.7926 287.912 81.401C288.622 80.2516 279.776 66.4032 272.621 57.4645C263.852 46.5103 253.224 36.5181 241.081 27.8129C223.075 14.905 201.607 6.0407 179.154 2.24373C170.5 0.780659 166.789 0.407822 157.035 0.0213699C155.307 -0.047228 150.477 0.0548826 146.3 0.248109ZM168.294 46.0175C192.074 49.0856 214.112 60.1492 231.923 77.9596C241.39 87.4271 251.552 102.862 256.02 114.564C256.701 116.345 257.088 116.824 257.445 116.326C257.795 115.839 257.845 115.923 257.618 116.619C257.444 117.157 258.15 120.22 259.188 123.427C262.951 135.044 264.64 146.281 264.631 159.629C264.61 190.361 252.594 219.587 231.315 240.661C215.606 256.218 198.16 266.11 177.981 270.902C169.79 272.848 163.907 273.52 155.051 273.521C137.02 273.525 123.625 270.447 107.175 262.519C80.9707 249.892 59.5655 225.599 49.7356 197.332C41.9112 174.832 41.1509 150.355 47.5651 127.461C52.6455 109.326 61.7889 93.1689 74.7351 79.4504C77.2124 76.8253 79.1295 74.5276 78.9949 74.3448C78.8598 74.1621 78.9012 74.1249 79.0855 74.2616C79.6495 74.6789 84.5351 70.2876 84.1675 69.6938C83.979 69.388 84.0665 69.2879 84.3628 69.4707C84.6587 69.6534 86.8748 68.3187 89.2872 66.5037C106.341 53.6754 126.798 46.3391 149.181 45.0247C153.646 44.7624 161.879 45.1902 168.294 46.0175ZM1070.8 58.8296C1052.57 60.465 1040.89 69.1146 1037.18 83.7343C1035.81 89.1347 1035.81 116.937 1037.17 122.765C1039.95 134.594 1048 142.998 1060.08 146.696C1068.74 149.345 1082.21 149.527 1091.6 147.123C1105.4 143.591 1114.86 134.543 1117.4 122.45C1117.93 119.934 1118.18 115.469 1118.18 108.211C1118.19 97.8723 1118.16 97.6183 1117.03 96.8214C1115.28 95.5992 1081.83 95.5992 1080.08 96.8214C1078.97 97.5969 1078.92 97.9875 1078.92 104.9C1078.92 114.064 1078.72 113.81 1085.83 113.81C1091.09 113.81 1091.09 113.81 1090.87 116.849C1090.43 122.952 1087.01 126.417 1080.29 127.568C1073.31 128.762 1067.82 126.427 1065.39 121.234C1063.99 118.261 1063.99 118.261 1063.99 103.337C1063.99 89.2112 1064.05 88.2843 1065.11 86.0002C1067.08 81.7497 1070.83 79.7729 1076.93 79.7729C1082.14 79.7729 1084.98 81.1255 1088.03 85.0518C1090.44 88.1513 1090.44 88.1513 1103.52 88.1513C1116.6 88.1513 1116.6 88.1513 1117.4 86.9296C1119.29 84.0454 1115.96 75.601 1111 70.7044C1107.44 67.1923 1106.08 66.2167 1101.32 63.7776C1096.21 61.1573 1089.57 59.3983 1082.61 58.8207C1079.28 58.5453 1076.21 58.35 1075.78 58.3872C1075.34 58.4238 1073.1 58.6228 1070.8 58.8296ZM345.844 60.8881C344.77 61.9621 344.763 62.2334 344.763 103.622C344.763 145.277 344.763 145.277 346.049 146.562C347.331 147.845 347.355 147.847 358.296 147.847C367.966 147.847 369.389 147.739 370.365 146.931C371.433 146.045 371.476 145.543 371.601 132.138C371.731 118.261 371.731 118.261 376.391 118.261C381.051 118.261 381.051 118.261 387.515 131.598C391.069 138.934 394.573 145.532 395.302 146.261C396.626 147.585 396.626 147.585 408.632 147.743C420.244 147.896 420.674 147.866 421.739 146.8C422.425 146.114 422.724 145.333 422.532 144.728C422.362 144.194 418.58 137.144 414.127 129.061C409.673 120.978 406.03 114.138 406.03 113.861C406.03 113.584 406.514 113.203 407.105 113.016C408.733 112.499 414.645 106.759 416.422 103.969C419.151 99.6857 420.169 95.7049 420.162 89.3463C420.159 86.241 419.834 82.4912 419.44 81.0129C416.948 71.6522 409.033 64.4494 397.809 61.3269C393.954 60.255 392.403 60.1796 370.324 59.999C347.251 59.8094 346.91 59.822 345.844 60.8881ZM432.555 60.8321C431.764 61.7066 431.689 65.4554 431.689 103.969C431.689 142.559 431.762 146.209 432.554 146.867C433.263 147.455 439.285 147.611 465.818 147.728C498.216 147.87 498.216 147.87 499.513 146.574C500.781 145.305 500.81 145.097 500.81 137.194C500.81 130.018 500.698 128.973 499.809 127.876C498.809 126.639 498.809 126.639 478.078 126.491C457.347 126.343 457.347 126.343 457.347 119.815C457.347 113.286 457.347 113.286 476.356 113.286C490.442 113.286 495.527 113.124 495.993 112.658C496.43 112.221 496.621 109.439 496.621 103.513C496.621 95.628 496.545 94.9556 495.608 94.4534C494.964 94.1089 487.808 93.9114 475.971 93.9114C457.347 93.9114 457.347 93.9114 457.347 87.3658C457.347 80.8202 457.347 80.8202 477.487 80.8202C497.532 80.8202 497.633 80.815 498.695 79.674C499.676 78.6209 499.763 77.8569 499.763 70.2483C499.763 62.6669 499.674 61.8804 498.716 60.9216C497.691 59.8968 496.97 59.8743 465.545 59.8743C435.09 59.8743 433.377 59.9241 432.555 60.8321ZM512.33 60.9216C511.301 61.9511 511.283 62.6669 511.283 103.622C511.283 145.277 511.283 145.277 512.569 146.562C513.849 147.842 513.891 147.847 524.554 147.847C533.975 147.847 535.387 147.738 536.361 146.931C537.43 146.045 537.472 145.543 537.597 132.138C537.727 118.261 537.727 118.261 556.009 118.123C568.615 118.028 574.513 117.802 575.003 117.395C575.566 116.928 575.684 114.767 575.572 107.075C575.43 97.345 575.43 97.345 574.121 96.6831C573.144 96.1893 568.328 96.0196 555.139 96.0139C537.465 96.006 537.465 96.006 537.465 88.9368C537.465 81.8675 537.465 81.8675 557.021 81.8675C575.301 81.8675 576.633 81.8052 577.443 80.9098C578.18 80.0955 578.31 78.5801 578.31 70.7798C578.31 62.5591 578.211 61.5175 577.352 60.741C576.484 59.955 573.47 59.8743 544.886 59.8743C514.076 59.8743 513.355 59.8974 512.33 60.9216ZM588.502 61.1395C587.764 62.2653 587.694 65.69 587.862 92.1656C588.03 118.498 588.157 122.288 588.961 125.068C592.368 136.841 600.174 144.031 613.133 147.333C618.564 148.717 628.418 149.205 634.864 148.409C651.055 146.41 661.308 138.378 664.725 125.018C665.695 121.224 665.759 119.137 665.759 91.2906C665.759 63.199 665.708 61.561 664.801 60.741C663.973 59.9906 662.337 59.8754 652.627 59.8822C646.458 59.8869 641.15 60.0634 640.834 60.2749C639.148 61.4002 639.053 62.9989 639.05 90.3423C639.048 107.571 638.847 118.46 638.506 119.685C636.978 125.186 630.503 128.373 623.78 126.932C620.07 126.136 617.916 124.574 616.156 121.403C614.704 118.785 614.704 118.785 614.551 90.2632C614.415 64.8883 614.306 61.639 613.554 60.808C612.791 59.9654 611.57 59.8743 601.02 59.8743C589.331 59.8743 589.331 59.8743 588.502 61.1395ZM679.666 61.0384C678.944 62.0679 678.85 67.0111 678.85 103.94C678.85 149.288 678.697 146.881 681.636 147.602C682.264 147.757 697.112 147.816 714.632 147.734C745.469 147.59 746.509 147.553 747.229 146.569C747.798 145.79 747.972 143.572 747.972 137.094C747.972 129.16 747.903 128.573 746.87 127.637C745.832 126.697 744.574 126.631 725.123 126.491C704.477 126.343 704.477 126.343 704.624 119.946C704.771 113.548 704.771 113.548 723.622 113.42C742.102 113.294 742.492 113.27 743.39 112.184C744.171 111.239 744.306 109.937 744.306 103.36C744.306 96.5506 744.194 95.5431 743.349 94.7781C742.495 94.0052 740.34 93.9114 723.45 93.9114C704.509 93.9114 704.509 93.9114 704.509 87.3658C704.509 80.8202 704.509 80.8202 724.67 80.8202C744.132 80.8202 744.866 80.7841 745.877 79.7729C746.839 78.811 746.925 78.0276 746.925 70.1666C746.925 62.5397 746.82 61.5133 745.967 60.741C745.098 59.9544 742.033 59.8743 712.745 59.8743C680.481 59.8743 680.48 59.8743 679.666 61.0384ZM759.835 60.8321C759.044 61.7066 758.969 65.458 758.969 104.003C758.969 146.217 758.969 146.217 760.133 147.032C761.154 147.748 765.093 147.847 792.36 147.847C823.425 147.847 823.425 147.847 824.71 146.562C825.97 145.302 825.995 145.106 825.995 136.729C825.995 129.841 825.837 127.956 825.18 127.018C824.365 125.854 824.365 125.854 805.294 125.854C786.222 125.854 786.222 125.854 786.079 93.6072C785.941 62.3779 785.904 61.3369 784.92 60.6174C784.115 60.0288 781.494 59.8743 772.303 59.8743C761.729 59.8743 760.625 59.9592 759.835 60.8321ZM834.142 61.0384C833.42 62.0679 833.327 67.0111 833.327 103.94C833.327 149.288 833.173 146.88 836.112 147.603C836.74 147.757 851.117 147.816 868.061 147.734C897.86 147.59 898.891 147.552 899.61 146.569C900.184 145.785 900.353 143.5 900.353 136.57C900.353 128.558 900.251 127.494 899.403 126.727C898.566 125.969 896.227 125.851 879.635 125.73C860.818 125.592 860.818 125.592 860.683 93.6863C860.561 64.9123 860.464 61.6872 859.685 60.8274C858.899 59.9586 857.765 59.8743 846.89 59.8743C835.152 59.8743 834.944 59.8932 834.142 61.0384ZM909.032 60.6965C908.579 61.1484 908.084 62.0323 907.931 62.6601C907.777 63.288 907.718 82.2613 907.799 104.824C907.946 145.845 907.946 145.845 909.216 146.873C910.408 147.838 911.209 147.892 922.219 147.743C933.13 147.596 934.005 147.514 934.695 146.569C935.322 145.712 935.438 138.981 935.438 103.58C935.438 63.5828 935.393 61.5668 934.48 60.741C933.649 59.9885 931.966 59.8743 921.688 59.8743C911.633 59.8743 909.73 59.9979 909.032 60.6965ZM949.919 60.8321C949.128 61.706 949.053 65.4349 949.053 103.671C949.053 139.015 949.169 145.711 949.796 146.569C950.491 147.519 951.255 147.585 961.552 147.585C969.885 147.585 972.73 147.42 973.245 146.905C973.771 146.38 973.986 141.608 974.188 125.959C974.45 105.694 974.45 105.694 987.834 125.854C995.195 136.942 1001.65 146.368 1002.18 146.8C1002.94 147.419 1005.17 147.62 1012.75 147.749C1022.35 147.912 1022.35 147.912 1023.66 146.594C1024.98 145.277 1024.98 145.277 1024.98 103.622C1024.98 62.6669 1024.96 61.9511 1023.93 60.9216C1022.96 59.9429 1022.19 59.8743 1012.23 59.8743C1002.58 59.8743 1001.5 59.9639 1000.71 60.8321C999.937 61.6898 999.847 63.986 999.847 82.8253C999.847 94.3948 999.67 103.852 999.454 103.842C999.238 103.832 993.406 94.7016 986.494 83.5521C979.581 72.4026 973.254 62.5135 972.431 61.5772C970.938 59.8743 970.938 59.8743 960.861 59.8743C951.766 59.8743 950.702 59.9675 949.919 60.8321ZM111.426 79.1995C110.246 79.7358 108.714 80.9679 108.022 81.9372C106.765 83.7003 106.765 83.7003 106.627 154.367C106.518 209.772 106.349 225.121 105.841 225.443C105.485 225.67 103.892 225.858 102.3 225.863C97.3121 225.876 95.5066 228.24 95.5066 234.756C95.5066 238.438 95.5066 238.438 145.777 238.438C196.047 238.438 196.047 238.438 196.045 234.38C196.042 228.004 194.309 225.907 188.777 225.591C187.16 225.498 185.67 225.406 185.467 225.385C185.265 225.364 185.147 208.44 185.205 187.775C185.312 150.204 185.312 150.204 190.116 150.053C194.871 149.905 194.939 149.921 196.843 151.592C197.901 152.521 199.004 153.884 199.295 154.622C199.613 155.43 199.902 165.663 200.02 180.313C200.14 195.037 200.439 205.605 200.778 207.047C201.816 211.464 207.372 217.331 211.639 218.516C214.495 219.309 220.124 219.182 222.82 218.263C229.326 216.047 233.752 208.962 233.748 200.771C233.747 198.88 233.034 192.501 232.164 186.597C228.414 161.168 228.346 160.367 228.444 142.873C228.493 133.944 228.583 124.283 228.644 121.403C228.716 118.014 228.497 115.428 228.027 114.072C227.211 111.728 219.264 103.166 218.399 103.701C218.113 103.878 218.028 103.781 218.21 103.485C218.483 103.044 204.155 88.7907 202.146 87.5046C200.12 86.2075 197.618 87.6355 197.618 90.0893C197.618 90.6166 200.34 93.7538 203.669 97.0617C210.332 103.683 210.027 102.933 208.354 108.574C207.231 112.361 207.503 121.992 208.82 125.068C210.531 129.062 213.947 131.608 219.07 132.706C221.706 133.272 221.706 133.272 221.714 141.738C221.728 156.967 222.826 168.964 225.895 187.435C226.752 192.59 227.454 198.458 227.454 200.474C227.456 205.311 225.906 208.761 222.751 210.948C220.744 212.339 220.054 212.518 216.693 212.518C213.231 212.518 212.726 212.376 210.891 210.891C209.785 209.996 208.337 208.207 207.672 206.916C206.468 204.574 206.463 204.49 206.301 179.742C206.176 160.793 205.97 154.359 205.43 152.56C204.504 149.476 200.27 145.173 197.295 144.295C196.11 143.944 193.153 143.658 190.724 143.658C187.987 143.658 186.068 143.419 185.679 143.03C185.205 142.556 185.05 135.351 185.05 113.816C185.05 85.2314 185.05 85.2314 183.872 82.918C183.035 81.2737 182.026 80.2568 180.386 79.4033C178.078 78.202 178.078 78.202 145.825 78.2135C115.504 78.2245 113.444 78.2832 111.426 79.1995ZM388.898 80.959C392.353 83.2248 393.777 90.1736 391.564 93.9628C389.622 97.2884 387.884 97.8388 379.324 97.8388C371.731 97.8388 371.731 97.8388 371.587 88.7587C371.444 79.6787 371.444 79.6787 379.467 79.8567C386.045 80.0028 387.744 80.2013 388.898 80.959ZM174.667 89.0179C175.562 89.8275 175.625 91.1502 175.625 109.12C175.625 127.278 175.569 128.426 174.624 129.592C173.623 130.829 173.623 130.829 146.173 130.973C118.979 131.116 118.709 131.107 117.325 130.019C115.929 128.92 115.929 128.92 115.936 109.714C115.94 99.1505 116.085 89.9778 116.259 89.3295C116.575 88.1513 116.575 88.1513 145.142 88.1513C170.989 88.1513 173.801 88.234 174.667 89.0179ZM217.407 114.106C219.292 115.427 220.676 118.801 221.194 123.34C221.46 125.668 221.551 127.775 221.398 128.022C220.855 128.902 218.255 128.453 216.335 127.148C213.761 125.399 212.699 123.201 212.398 119C212.176 115.889 212.273 115.429 213.361 114.414C214.799 113.075 215.823 112.997 217.407 114.106ZM465.13 174.57C451.147 175.84 440.076 182.335 434.885 192.313C431.189 199.418 430.908 201.362 430.905 219.849C430.903 235.248 430.965 236.296 432.111 240.253C435.295 251.252 442.082 258.153 453.448 261.946C459.802 264.067 466.102 264.83 474.104 264.448C493.831 263.505 505.565 255.334 510.077 239.397C510.888 236.53 511.015 233.855 511.018 219.587C511.022 201.372 510.792 199.611 507.55 192.959C505.56 188.877 500.159 183.034 496.163 180.641C487.906 175.695 476.755 173.514 465.13 174.57ZM889.095 174.573C874.284 176.047 863.667 182.422 858.55 192.913C855.074 200.04 854.668 203.256 854.912 221.806C855.116 237.355 855.147 237.733 856.537 241.924C861.091 255.661 873.212 263.47 891.495 264.447C914.367 265.671 929.806 256.361 934.215 238.685C934.982 235.612 935.123 232.552 935.104 219.325C935.081 201.753 934.651 198.821 931.14 192.234C924.425 179.634 907.916 172.7 889.095 174.573ZM368.266 176.866C366.832 178.357 337.325 260.591 337.79 261.803C337.949 262.217 338.507 262.784 339.03 263.064C340.491 263.846 359.923 263.703 361.52 262.898C363.037 262.134 364.065 260.277 366.292 254.279C367.895 249.959 367.895 249.959 383.231 249.959C398.567 249.959 398.567 249.959 400.543 255.326C401.63 258.278 403.078 261.282 403.761 262.002C404.993 263.3 405.094 263.313 415.303 263.474C420.967 263.564 426.139 263.503 426.797 263.337C429.797 262.585 430.074 263.556 414.318 219.518C403.63 189.649 399.155 177.771 398.245 176.861C396.985 175.601 396.985 175.601 383.235 175.601C369.484 175.601 369.484 175.601 368.266 176.866ZM516.912 176.166C516.09 176.645 515.996 177.735 515.996 186.847C515.996 195.375 516.127 197.127 516.819 197.818C517.517 198.516 519.384 198.641 529.124 198.641C540.607 198.641 540.607 198.641 540.607 229.96C540.607 256.182 540.728 261.444 541.35 262.295C542.049 263.25 542.82 263.312 554.157 263.312C565.608 263.312 566.261 263.258 567.012 262.264C567.697 261.358 567.806 257.015 567.82 229.929C567.837 198.641 567.837 198.641 579.319 198.641C594.118 198.641 593.101 199.556 592.873 186.443C592.724 177.889 592.623 177.021 591.694 176.343C590.839 175.719 584.879 175.603 554.253 175.616C530.488 175.627 517.51 175.818 516.912 176.166ZM601.642 176.765C600.921 177.794 600.827 182.737 600.827 219.665C600.827 261.403 600.827 261.403 602.221 262.499C603.607 263.59 603.814 263.595 636.039 263.454C667.443 263.316 668.486 263.28 669.205 262.295C669.775 261.516 669.948 259.298 669.948 252.82C669.948 244.886 669.88 244.299 668.847 243.363C667.809 242.423 666.551 242.357 647.099 242.217C626.454 242.069 626.454 242.069 626.6 235.672C626.747 229.274 626.747 229.274 645.599 229.146C664.078 229.02 664.468 228.996 665.366 227.91C666.148 226.966 666.283 225.663 666.283 219.086C666.283 212.277 666.17 211.269 665.325 210.504C664.472 209.731 662.317 209.638 645.426 209.638C626.486 209.638 626.486 209.638 626.486 203.092C626.486 196.546 626.486 196.546 646.646 196.546C666.108 196.546 666.843 196.51 667.854 195.499C668.816 194.537 668.901 193.754 668.901 185.893C668.901 178.266 668.797 177.24 667.943 176.467C667.074 175.681 664.009 175.601 634.722 175.601C602.457 175.601 602.457 175.601 601.642 176.765ZM704.27 176.779C703.196 177.719 699.971 186.247 688.278 219.063C680.222 241.672 673.627 260.706 673.622 261.361C673.608 263.354 675.573 263.662 687.145 263.48C699.714 263.281 698.569 263.91 701.648 255.506C703.685 249.943 703.685 249.943 719.102 250.082C734.517 250.22 734.517 250.22 736.549 255.719C737.667 258.743 739.05 261.688 739.624 262.264C740.588 263.232 741.484 263.324 751.435 263.473C760.556 263.609 762.395 263.507 763.465 262.806C764.16 262.351 764.729 261.593 764.729 261.122C764.729 260.123 736.27 180.4 735.12 178.175C734.694 177.352 733.893 176.436 733.339 176.14C732.723 175.81 727.133 175.601 718.973 175.601C705.867 175.601 705.589 175.623 704.27 176.779ZM771.879 176.558C771.088 177.432 771.012 181.161 771.012 219.397C771.012 254.742 771.129 261.437 771.755 262.295C772.453 263.25 773.223 263.312 784.365 263.312C795.508 263.312 796.277 263.25 796.975 262.295C797.572 261.478 797.718 258.571 797.718 247.482C797.718 233.685 797.718 233.685 802.3 233.836C806.882 233.987 806.882 233.987 813.715 247.864C819.856 260.334 820.732 261.833 822.356 262.656C823.911 263.444 825.746 263.572 835.515 263.572C847.612 263.573 848.512 263.39 848.512 260.928C848.512 260.126 838.987 242.228 833.017 231.812C831.77 229.636 831.77 229.636 834.382 227.96C839.89 224.425 844.272 218.157 845.695 211.778C846.792 206.86 846.438 199.189 844.913 194.845C841.454 184.991 832.084 178.179 819.188 176.145C817.271 175.843 806.381 175.607 794.265 175.605C774.079 175.601 772.692 175.66 771.879 176.558ZM967.688 176.779C966.649 177.705 963.222 186.802 951.688 219.251C943.614 241.962 937.009 260.859 937.009 261.244C937.009 261.629 937.532 262.31 938.173 262.758C939.128 263.427 941.139 263.573 949.397 263.573C954.93 263.573 960.052 263.347 960.779 263.071C962.297 262.494 963.45 260.384 965.591 254.271C967.106 249.943 967.106 249.943 982.556 250.082C998.006 250.22 998.006 250.22 999.879 255.336C1002.99 263.823 1002 263.284 1014.74 263.473C1023.94 263.609 1025.79 263.508 1026.86 262.806C1027.55 262.351 1028.12 261.536 1028.12 260.996C1028.12 260.456 1021.52 241.551 1013.46 218.986C1001.84 186.479 998.518 177.712 997.459 176.779C996.146 175.621 995.879 175.601 982.566 175.601C969.248 175.601 968.986 175.621 967.688 176.779ZM478.15 197.174C479.621 198.148 480.749 199.532 481.777 201.625C483.268 204.663 483.268 204.663 483.268 219.325C483.268 235.073 483.074 236.509 480.539 239.522C476.466 244.362 467.608 244.974 462.68 240.755C459.114 237.704 458.751 235.96 458.518 220.801C458.242 202.812 459.128 199.466 464.888 196.726C467.155 195.648 468.197 195.479 471.786 195.609C475.353 195.737 476.349 195.982 478.15 197.174ZM814.799 196.841C817.1 198.561 818.236 200.438 818.525 202.999C818.915 206.466 818.3 208.896 816.517 210.926C814.491 213.234 811.36 213.915 803.699 213.715C797.98 213.565 797.98 213.565 797.837 204.494C797.693 195.423 797.693 195.423 805.524 195.592C812.462 195.742 813.52 195.884 814.799 196.841ZM900.615 196.489C903.258 197.708 904.696 199.27 906.219 202.575C907.381 205.096 907.423 205.68 907.423 219.325C907.423 234.456 907.213 236.008 904.709 239.359C900.885 244.479 890.728 245.011 886.054 240.336C882.957 237.24 882.48 234.532 882.469 220.004C882.464 212.986 882.63 206.311 882.837 205.169C883.608 200.929 885.89 197.838 889.36 196.333C891.979 195.198 897.998 195.281 900.615 196.489ZM383.351 228.894C378.173 228.972 373.857 228.957 373.76 228.859C373.662 228.762 375.738 222.218 378.373 214.318C383.165 199.954 383.165 199.954 387.965 214.353C392.765 228.751 392.765 228.751 383.351 228.894ZM723.656 213.958C726.17 221.518 728.336 227.998 728.468 228.358C728.655 228.867 726.592 229.013 719.227 229.013C712.075 229.013 709.746 228.854 709.746 228.369C709.746 227.759 718.789 200.212 718.99 200.212C719.041 200.212 721.141 206.398 723.656 213.958ZM987.475 214.612C989.96 222.101 991.992 228.404 991.992 228.62C991.992 228.836 987.75 229.013 982.566 229.013C977.382 229.013 973.141 228.864 973.141 228.682C973.141 227.51 982.314 200.281 982.601 200.601C982.798 200.819 984.991 207.124 987.475 214.612Z" fill="black"/>
</svg>
